<?xml version="1.0" encoding="UTF-8" standalone="no"?>
<svg
   xmlns:dc="http://purl.org/dc/elements/1.1/"
   xmlns:cc="http://creativecommons.org/ns#"
   xmlns:rdf="http://www.w3.org/1999/02/22-rdf-syntax-ns#"
   xmlns:svg="http://www.w3.org/2000/svg"
   xmlns="http://www.w3.org/2000/svg"
   xmlns:sodipodi="http://sodipodi.sourceforge.net/DTD/sodipodi-0.dtd"
   xmlns:inkscape="http://www.inkscape.org/namespaces/inkscape"
   inkscape:version="0.92.4 (5da689c313, 2019-01-14)"
   sodipodi:docname="logo.svg"
   xml:space="preserve"
   enable-background="new 0 0 512 512"
   viewBox="0 0 512 512"
   height="512px"
   width="512px"
   y="0px"
   x="0px"
   id="Layer_1"
   version="1.1"><metadata
   id="metadata3881"><rdf:RDF><cc:Work
       rdf:about=""><dc:format>image/svg+xml</dc:format><dc:type
         rdf:resource="http://purl.org/dc/dcmitype/StillImage" /><dc:title /></cc:Work></rdf:RDF></metadata><defs
   id="defs3879" /><sodipodi:namedview
   pagecolor="#ffffff"
   bordercolor="#666666"
   borderopacity="1"
   objecttolerance="10"
   gridtolerance="10"
   guidetolerance="10"
   inkscape:pageopacity="0"
   inkscape:pageshadow="2"
   inkscape:window-width="1920"
   inkscape:window-height="1013"
   id="namedview3877"
   showgrid="false"
   inkscape:zoom="1"
   inkscape:cx="354.42859"
   inkscape:cy="240.18109"
   inkscape:window-x="0"
   inkscape:window-y="0"
   inkscape:window-maximized="1"
   inkscape:current-layer="Layer_1" />  
<g
   id="g4982"><rect
     y="256"
     x="0"
     height="12"
     width="512"
     id="rect4802-5"
     style="fill:#d89500;fill-opacity:1;stroke-width:1.55188596" /><rect
     transform="matrix(0.89442718,0.44721361,-0.89442718,0.44721361,0,0)"
     style="fill:#00a294;fill-opacity:1;stroke-width:0.559017"
     y="91.678757"
     x="377.89548"
     height="286.21671"
     width="286.21671"
     id="rect3883-6-6" /><rect
     y="326"
     x="0"
     height="12"
     width="512"
     id="rect4802-5-2"
     style="fill:#00a294;fill-opacity:1;stroke-width:1.55188596" /><rect
     transform="matrix(0.89442718,0.44721361,-0.89442718,0.44721361,0,0)"
     style="fill:#00cab9;fill-opacity:1;stroke-width:0.559017"
     y="78.262344"
     x="364.47906"
     height="286.21671"
     width="286.21671"
     id="rect3883-6" /><rect
     transform="matrix(0.89442718,0.44721362,-0.89442718,0.44721362,0,0)"
     style="fill:#d89500;fill-opacity:1;stroke-width:0.559017"
     y="13.416381"
     x="299.63309"
     height="286.21671"
     width="286.21671"
     id="rect3883-3-5-3" /><rect
     transform="matrix(0.89442718,0.44721361,-0.89442718,0.44721361,0,0)"
     style="fill:#ffb000;fill-opacity:1;stroke-width:0.559017"
     y="-1.4238168e-05"
     x="286.21667"
     height="286.21671"
     width="286.21671"
     id="rect3883" /><rect
     transform="matrix(0.89442718,0.44721362,-0.89442718,0.44721362,0,0)"
     style="fill:#d8003b;fill-opacity:1;stroke-width:0.559017"
     y="-64.846001"
     x="221.37071"
     height="286.21671"
     width="286.21671"
     id="rect3883-3-5" /><rect
     y="186"
     x="1.3647876e-05"
     height="12"
     width="512"
     id="rect4802"
     style="fill:#d8003b;fill-opacity:1;stroke-width:1.55188596" /><rect
     transform="matrix(0.89442718,0.44721362,-0.89442718,0.44721362,0,0)"
     style="fill:#ff0045;fill-opacity:1;stroke-width:0.559017"
     y="-78.262405"
     x="207.9543"
     height="286.21671"
     width="286.21671"
     id="rect3883-3" /></g><path
   style="fill:#000000;fill-opacity:0.11764706;stroke-width:1.09240222"
   clip-path="none"
   d="M 256 58 L 256 466 L 512 338 L 512 326 L 454 297 L 512 268 L 512 256 L 454 227 L 512 198 L 512 186 L 256 58 z "
   id="rect4876" /></svg>